#!OML:ASF Y:\EmotionMaleHayes\Project 1\Capture day 1\Session 1\Male1.ASF
:FULLY-SPECIFIED
:DEGREES
1873
root 9.40627 16.8768 1.14797 1102.22 80.5761 1106.32
lowerback 8.00453 2.31874 -5.92858
upperback 9.16138 3.3104 -1.38768
thorax 4.88734 1.54065 1.75008
lowerneck -21.8075 4.50001 5.64697
upperneck 25.2043 6.75738 -7.0037
head 12.4223 2.71402 -2.43115
rclavicle 2.45996e-014 -1.68967e-014
rhumerus -43.9216 37.4079 -111.956
rradius 120.891
rwrist -29.8993
rhand -27.9705 -29.7865
rfingers 7.12502
rthumb -1.35743 -59.7619
lclavicle 2.45996e-014 -1.68967e-014
lhumerus -41.4228 -51.0906 114.81
lradius 106.718
lwrist 0.141077
lhand -35.1182 -48.0152
lfingers 7.12502
lthumb -8.2588 -18.1966
rfemur -5.802 12.4371 11.7489
rtibia 26.9101
rfoot -20.2287 6.18576
rtoes -25.3729
lfemur 1.02901 2.48683 -22.1598
ltibia 19.9931
lfoot -16.7693 10.4263
ltoes -12.2892
1874
root 9.38889 16.8806 1.12339 1102.19 80.5434 1106.24
lowerback 8.29804 2.35393 -5.9398
upperback 9.12226 3.33085 -1.36401
thorax 4.679 1.55642 1.76517
lowerneck -21.8708 4.46659 5.62088
upperneck 25.1971 6.70865 -6.98927
head 12.4266 2.68979 -2.42918
rclavicle 1.70458e-014 -2.99171e-014
rhumerus -44.1121 37.3668 -111.995
rradius 120.953
rwrist -29.8918
rhand -28.0148 -29.4215
rfingers 7.12502
rthumb -1.40019 -59.3966
lclavicle 1.70458e-014 -2.99171e-014
lhumerus -41.5938 -51.01 114.986
lradius 106.909
lwrist 1.2082
lhand -34.0818 -47.7081
lfingers 7.12502
lthumb -7.25856 -17.8526
rfemur -5.87077 12.4522 11.6241
rtibia 26.7629
rfoot -20.1191 6.19769
rtoes -25.2773
lfemur 0.953216 2.48896 -22.2643
ltibia 19.8605
lfoot -16.6213 10.5207
ltoes -12.2903
1875
root 9.37494 16.8839 1.10038 1103.06 80.4225 1107.09
lowerback 8.51034 2.40468 -6.12018
upperback 9.11435 3.37681 -1.39732
thorax 4.54557 1.57607 1.81771
lowerneck -22.0526 4.41407 5.61348
upperneck 25.2961 6.63963 -7.00552
head 12.4974 2.651 -2.44593
rclavicle 1.19271e-014 -3.67752e-015
rhumerus -44.2336 37.3196 -111.985
rradius 121.021
rwrist -30.3335
rhand -28.3675 -28.9366
rfingers 7.12502
rthumb -1.74086 -58.9093
lclavicle 1.19271e-014 -3.67752e-015
lhumerus -41.7931 -51.089 115.179
lradius 106.903
lwrist 1.48585
lhand -33.8383 -47.7801
lfingers 7.12502
lthumb -7.02352 -17.9166
rfemur -5.96976 12.332 11.2701
rtibia 26.7317
rfoot -20.0605 6.318
rtoes -25.513
lfemur 0.94961 2.49963 -22.5868
ltibia 19.7358
lfoot -16.6203 10.5464
ltoes -12.0956
1876
root 9.3577 16.8872 1.07967 1103.67 80.2588 1107.62
lowerback 8.60957 2.43291 -6.31724
upperback 9.11304 3.39938 -1.42829
thorax 4.48275 1.58021 1.88847
lowerneck -22.2713 4.37784 5.56604
upperneck 25.3867 6.59304 -6.98477
head 12.5709 2.62172 -2.43743
rclavicle -6.36111e-015 1.18277e-014
rhumerus -44.3423 37.3366 -112.016
rradius 120.952
rwrist -30.2919
rhand -28.4545 -29.2343
rfingers 7.12502
rthumb -1.82487 -59.2063
lclavicle -6.36111e-015 1.18277e-014
lhumerus -41.9241 -51.1239 115.277
lradius 106.928
lwrist 1.65559
lhand -33.9688 -47.8891
lfingers 7.12502
lthumb -7.14943 -18.0298
rfemur -6.25999 12.2562 10.9445
rtibia 26.8049
rfoot -20.0824 6.33474
rtoes -26.5662
lfemur 0.826818 2.59334 -22.826
ltibia 19.6582
lfoot -16.6095 10.5597
ltoes -12.1126
1877
root 9.33703 16.8901 1.06029 1103.74 80.1352 1107.56
lowerback 8.63615 2.41834 -6.50985
upperback 9.18163 3.37586 -1.4024
thorax 4.53613 1.55584 2.02392
lowerneck -22.5039 4.42557 5.61868
upperneck 25.3663 6.66344 -7.11272
head 12.6229 2.63375 -2.4805
rclavicle -1.19271e-014 -8.34896e-015
rhumerus -44.4405 37.5205 -112.117
rradius 120.787
rwrist -29.885
rhand -28.1301 -29.5169
rfingers 7.12502
rthumb -1.51153 -59.4913
lclavicle -1.19271e-014 -8.34896e-015
lhumerus -41.7629 -50.982 115.137
lradius 107.015
lwrist 2.00866
lhand -33.9105 -47.8661
lfingers 7.12502
lthumb -7.09316 -18.0049
rfemur -6.5377 12.3808 10.7819
rtibia 26.7507
rfoot -19.9802 6.25846
rtoes -26.9118
lfemur 0.655064 2.69238 -22.9056
ltibia 19.5259
lfoot -16.4758 10.6495
ltoes -12.2159
1878
root 9.31757 16.8932 1.03999 1103.46 80.1449 1107.19
lowerback 8.70956 2.38721 -6.51206
upperback 9.25162 3.33568 -1.3662
thorax 4.57254 1.5341 2.06362
lowerneck -22.5697 4.48049 5.72406
upperneck 25.2454 6.73688 -7.2792
head 12.6054 2.65239 -2.54694
rclavicle -1.16786e-014 2.36554e-014
rhumerus -44.4646 37.6416 -112.147
rradius 120.679
rwrist -29.8444
rhand -27.8158 -29.2427
rfingers 7.12502
rthumb -1.208 -59.219
lclavicle -1.16786e-014 2.36554e-014
lhumerus -41.5313 -50.895 115.002
lradius 107.019
lwrist 2.37498
lhand -33.7559 -47.9121
lfingers 7.12502
lthumb -6.9439 -18.046
rfemur -6.65321 12.6072 10.8011
rtibia 26.5829
rfoot -19.7606 6.12051
rtoes -26.3988
lfemur 0.560524 2.75242 -22.8734
ltibia 19.3659
lfoot -16.2465 10.7319
ltoes -12.9014
1879
root 9.30127 16.8964 1.01565 1104.32 80.1212 1107.97
lowerback 8.79741 2.3716 -6.52856
upperback 9.25661 3.31264 -1.44675
thorax 4.53579 1.52701 1.98626
lowerneck -22.4502 4.45064 5.64328
upperneck 25.1199 6.6745 -7.14597
head 12.5172 2.63768 -2.49274
rclavicle -3.39425e-014 3.50855e-014
rhumerus -44.4405 37.5594 -112.108
rradius 120.609
rwrist -29.8688
rhand -27.6426 -28.9787
rfingers 7.12502
rthumb -1.04072 -58.9559
lclavicle -3.39425e-014 3.50855e-014
lhumerus -41.4454 -51.0341 114.974
lradius 106.913
lwrist 2.7159
lhand -33.8985 -47.8497
lfingers 7.12502
lthumb -7.08163 -17.9882
rfemur -6.71986 12.6597 10.5484
rtibia 26.3782
rfoot -19.6029 6.04576
rtoes -26.4263
lfemur 0.444477 2.86675 -23.13
ltibia 19.3096
lfoot -16.1765 10.6725
ltoes -13.2504
1880
root 9.28929 16.9 0.988416 1105.7 79.9127 1109.27
lowerback 8.89122 2.39137 -6.77429
upperback 9.19135 3.3153 -1.5245
thorax 4.40996 1.52184 2.03484
lowerneck -22.2857 4.3967 5.4163
upperneck 25.072 6.61113 -6.90826
head 12.4412 2.62348 -2.37568
rclavicle 9.69075e-015 -8.94531e-015
rhumerus -44.5737 37.5029 -112.135
rradius 120.556
rwrist -29.8235
rhand -27.4728 -29.1135
rfingers 7.12502
rthumb -0.876729 -59.0914
lclavicle 9.69075e-015 -8.94531e-015
lhumerus -41.5923 -51.1087 115.165
lradius 106.857
lwrist 3.18444
lhand -34.0673 -47.6
lfingers 7.12502
lthumb -7.24452 -17.744
rfemur -6.92128 12.5694 10.0203
rtibia 26.3679
rfoot -19.5709 6.25206
rtoes -26.5111
lfemur 0.330028 3.02101 -23.617
ltibia 19.2178
lfoot -16.258 10.6188
ltoes -12.9401
1881
root 9.2788 16.9043 0.963709 1105.69 79.7585 1109.21
lowerback 9.12929 2.4519 -6.92577
upperback 9.0697 3.34881 -1.44043
thorax 4.1342 1.53555 2.18955
lowerneck -22.0357 4.28912 5.18257
upperneck 25.0474 6.53313 -6.83153
head 12.3638 2.58452 -2.32299
rclavicle 2.38542e-015 2.61402e-014
rhumerus -44.9734 37.3959 -112.194
rradius 120.594
rwrist -29.9534
rhand -27.3145 -29.545
rfingers 7.12502
rthumb -0.723803 -59.5235
lclavicle 2.38542e-015 2.61402e-014
lhumerus -42.1243 -50.9951 115.775
lradius 106.9
lwrist 3.35378
lhand -34.3963 -47.3685
lfingers 7.12502
lthumb -7.56211 -17.5236
rfemur -7.14607 12.521 9.79758
rtibia 26.5328
rfoot -19.618 6.48392
rtoes -26.5464
lfemur 0.346685 3.10697 -23.791
ltibia 18.9869
lfoot -16.2638 10.7119
ltoes -12.636
